<svg version="1.0" xmlns="http://www.w3.org/2000/svg" width="1969" height="2190" preserveAspectRatio="xMidYMid meet" style=""><rect id="backgroundrect" width="100%" height="100%" x="0" y="0" fill="none" stroke="none"/>


<g class="currentLayer" style=""><title>Layer 1</title><g transform="translate(0, 2190) scale(0.1, -0.1)" fill="#000000" stroke="none" id="svg_1" class="selected" fill-opacity="1">
<path d="M6610 21894 c0 -4 161 -169 358 -368 629 -635 858 -924 1119 -1411 175 -326 245 -527 331 -945 44 -212 54 -226 95 -133 40 92 99 307 129 473 17 99 17 602 -1 760 -31 274 -119 508 -267 710 -63 87 -308 330 -414 411 -187 144 -392 267 -537 323 -242 94 -813 220 -813 180z" id="svg_2" fill="#000000" fill-opacity="1"/>
<path d="M12749 21850 c-264 -62 -340 -83 -458 -126 -154 -57 -366 -183 -561 -333 -106 -81 -351 -324 -414 -411 -148 -202 -236 -436 -267 -710 -18 -158 -18 -661 -1 -760 30 -166 89 -381 129 -473 32 -71 53 -73 66 -7 93 490 178 748 357 1081 282 525 553 857 1289 1584 95 94 177 178 182 188 18 32 -97 20 -322 -33z" id="svg_3" fill="#000000" fill-opacity="1"/>
<path d="M9820 21063 c-5 -21 -30 -155 -55 -298 -53 -305 -80 -418 -145 -615 -181 -552 -473 -1093 -824 -1530 -394 -489 -723 -800 -1121 -1057 -435 -280 -632 -380 -1315 -663 -531 -220 -1353 -509 -2109 -740 -490 -150 -649 -213 -1071 -425 -967 -487 -1531 -922 -2036 -1571 -118 -152 -316 -435 -408 -584 -137 -222 -350 -686 -450 -980 -65 -192 -186 -631 -202 -729 -8 -53 -30 -175 -49 -271 -42 -210 -47 -336 -16 -364 32 -29 56 -12 91 61 153 328 895 1193 1335 1557 490 405 1157 829 1830 1161 332 164 449 216 1230 540 726 301 805 335 987 426 76 38 145 69 153 69 19 0 19 -20 0 -90 -18 -67 -20 -191 -3 -208 7 -7 19 -12 28 -12 24 0 411 129 438 146 12 8 22 22 22 31 0 9 -90 105 -200 214 -110 108 -200 202 -200 209 0 9 12 11 43 6 66 -9 574 -28 650 -24 78 4 101 22 90 67 -3 14 -44 118 -90 231 -45 113 -83 210 -83 216 0 17 50 24 179 24 182 1 458 18 480 30 29 15 28 71 -9 274 -17 92 -33 200 -37 240 -5 63 -3 74 11 79 11 4 81 -18 174 -54 302 -118 357 -131 386 -86 8 12 33 74 56 137 57 162 161 339 306 525 92 118 137 159 167 151 29 -7 97 -54 293 -204 81 -62 158 -115 172 -119 27 -6 51 4 63 28 23 41 229 482 249 532 13 31 29 57 36 57 16 0 52 -47 151 -195 198 -297 400 -499 699 -700 61 -41 119 -75 129 -75 23 0 208 124 325 217 109 86 278 255 360 358 34 44 99 134 143 200 99 148 135 195 151 195 7 0 23 -26 36 -57 20 -50 226 -491 249 -532 12 -24 36 -34 63 -28 14 4 91 57 172 119 196 150 264 197 293 204 30 8 75 -33 167 -151 145 -186 249 -363 306 -525 23 -63 48 -125 56 -137 29 -45 84 -32 386 86 93 36 163 58 174 54 14 -5 16 -16 11 -79 -4 -40 -20 -148 -37 -240 -37 -203 -38 -259 -9 -274 22 -12 298 -29 480 -30 129 0 179 -7 179 -24 0 -6 -38 -103 -83 -216 -46 -113 -87 -217 -90 -231 -11 -45 12 -63 90 -67 76 -4 584 15 651 24 30 5 42 3 42 -6 0 -7 -90 -101 -200 -209 -110 -109 -200 -205 -200 -214 0 -9 10 -23 23 -31 26 -17 413 -146 437 -146 9 0 21 5 28 12 17 17 15 141 -3 208 -19 70 -19 90 0 90 8 0 77 -31 153 -69 182 -91 261 -125 987 -426 781 -324 898 -376 1230 -540 673 -332 1340 -756 1830 -1161 440 -364 1182 -1229 1335 -1557 35 -73 59 -90 91 -61 31 28 26 154 -16 364 -19 96 -41 218 -49 271 -16 98 -137 537 -202 729 -55 160 -196 496 -289 685 -99 200 -193 355 -362 595 -239 340 -415 552 -657 788 -401 390 -872 707 -1586 1067 -422 212 -581 275 -1071 425 -756 231 -1578 520 -2109 740 -683 283 -880 383 -1315 663 -398 257 -727 568 -1121 1057 -351 437 -643 978 -824 1530 -65 197 -92 310 -145 615 -51 296 -60 335 -80 335 -8 0 -19 -17 -25 -37z" id="svg_4" fill="#000000" fill-opacity="1"/>
<path d="M5665 20695 c-272 -44 -504 -145 -805 -349 -284 -193 -382 -278 -353 -307 5 -5 82 4 184 22 227 40 460 49 663 25 343 -40 719 -133 1006 -248 318 -128 743 -336 1020 -498 217 -127 263 -150 295 -150 47 0 41 16 -118 275 -159 261 -304 460 -454 623 -84 91 -278 255 -417 350 -172 119 -378 213 -541 247 -112 23 -365 29 -480 10z" id="svg_5" fill="#000000" fill-opacity="1"/>
<path d="M13632 20699 c-193 -23 -418 -116 -628 -261 -139 -95 -333 -259 -417 -350 -150 -163 -295 -362 -454 -623 -159 -259 -165 -275 -118 -275 32 0 78 23 295 150 277 162 702 370 1020 498 287 115 663 208 1006 248 203 24 436 15 663 -25 102 -18 179 -27 184 -22 28 28 -50 97 -313 281 -447 312 -823 427 -1238 379z" id="svg_6" fill="#000000" fill-opacity="1"/>
<path d="M5000 19814 c-257 -34 -544 -124 -748 -237 -273 -149 -423 -261 -700 -520 -226 -212 -680 -707 -716 -781 -36 -75 24 -72 224 10 349 144 471 190 685 259 522 168 756 210 1185 210 283 0 293 -2 651 -90 141 -35 303 -70 360 -79 378 -54 957 -45 1234 19 156 36 727 246 768 283 24 21 21 51 -5 61 -13 5 -66 11 -118 15 -242 18 -419 50 -677 126 -371 108 -478 152 -873 356 -480 249 -634 312 -865 354 -63 12 -346 21 -405 14z" id="svg_7" fill="#000000" fill-opacity="1"/>
<path d="M14390 19814 c-14 -2 -59 -9 -100 -15 -210 -30 -384 -101 -870 -353 -394 -204 -501 -248 -873 -356 -258 -76 -435 -108 -677 -126 -52 -4 -105 -10 -117 -15 -27 -10 -30 -40 -5 -61 40 -37 611 -247 767 -283 277 -64 856 -73 1234 -19 57 9 219 44 360 79 358 88 368 90 651 90 429 0 663 -42 1185 -210 214 -69 336 -115 685 -259 201 -83 260 -85 223 -9 -32 67 -416 487 -675 739 -434 423 -782 633 -1234 749 -174 44 -430 67 -554 49z" id="svg_8" fill="#000000" fill-opacity="1"/>
<path d="M8108 18688 c-296 -221 -386 -270 -678 -363 -149 -47 -236 -70 -389 -100 -222 -43 -358 -55 -761 -67 -388 -11 -832 -5 -1665 23 -433 15 -803 0 -1106 -46 -454 -68 -943 -263 -1209 -484 -353 -292 -616 -627 -821 -1044 -144 -293 -238 -567 -330 -962 -45 -192 -47 -211 -32 -222 27 -20 60 -5 218 97 312 202 427 268 755 438 693 358 1348 594 2345 845 311 78 375 92 710 152 423 75 1008 236 1315 360 352 143 745 366 1099 623 197 143 401 347 583 583 154 199 178 235 178 267 0 46 -44 26 -212 -100z" id="svg_9" fill="#000000" fill-opacity="1"/>
<path d="M11370 18788 c0 -32 24 -68 178 -267 182 -236 386 -440 583 -583 354 -257 747 -480 1099 -623 307 -124 892 -285 1315 -360 335 -60 399 -74 710 -152 997 -251 1652 -487 2345 -845 330 -170 448 -239 756 -439 161 -105 189 -117 216 -97 17 12 15 26 -31 223 -95 407 -189 679 -341 982 -206 412 -461 735 -810 1024 -265 220 -755 416 -1209 484 -303 46 -673 61 -1106 46 -833 -28 -1277 -34 -1665 -23 -403 12 -539 24 -761 67 -153 30 -240 53 -389 100 -292 93 -382 142 -678 363 -168 126 -212 146 -212 100z" id="svg_10" fill="#000000" fill-opacity="1"/>
<path d="M7127 14639 c-93 -61 -284 -180 -425 -264 -306 -183 -342 -208 -342 -238 0 -32 64 -91 134 -123 59 -27 60 -27 105 -10 192 74 269 92 292 69 6 -6 21 -50 33 -99 13 -49 30 -103 39 -121 42 -79 348 -233 545 -272 30 -6 142 -16 249 -21 107 -6 204 -15 214 -21 10 -5 22 -21 25 -35 10 -38 -5 -209 -26 -302 -19 -86 -17 -122 6 -122 20 0 131 43 194 75 51 26 54 26 67 9 16 -22 18 -253 3 -424 -26 -295 -74 -481 -330 -1280 -89 -279 -98 -314 -80 -335 7 -8 16 -15 21 -15 46 0 511 1183 594 1511 49 194 87 433 100 634 5 71 13 110 27 135 19 34 19 39 4 125 -8 50 -25 164 -36 255 -45 358 -88 449 -249 529 -96 48 -144 63 -313 100 -75 17 -150 37 -167 45 -30 16 -34 23 -46 84 -15 71 -50 58 -208 -77 -137 -117 -182 -144 -198 -120 -17 27 -8 39 89 112 116 89 155 129 150 154 -2 12 -44 38 -128 80 -69 34 -136 64 -150 67 -20 5 -58 -16 -193 -105z" id="svg_11" fill="#000000" fill-opacity="1"/>
<path d="M12300 14707 c-173 -79 -190 -89 -190 -112 0 -25 57 -81 168 -164 81 -61 90 -73 73 -100 -16 -24 -61 3 -198 120 -158 135 -193 148 -208 77 -12 -61 -16 -68 -46 -84 -17 -8 -92 -28 -167 -45 -166 -36 -217 -52 -305 -96 -169 -84 -212 -173 -257 -533 -11 -91 -27 -206 -36 -256 -15 -87 -15 -91 4 -125 14 -24 22 -62 26 -129 24 -333 74 -587 174 -880 184 -535 486 -1270 522 -1270 5 0 14 9 20 20 14 27 3 70 -90 360 -286 890 -329 1088 -330 1516 0 189 -3 187 125 129 121 -54 160 -63 168 -41 4 9 -2 58 -13 108 -22 107 -36 264 -26 302 3 14 15 30 25 35 10 6 107 15 214 21 205 10 261 18 367 52 92 29 276 117 348 167 72 48 92 82 117 193 9 42 22 84 29 94 24 32 89 18 297 -61 45 -18 46 -18 105 9 70 32 134 91 134 123 0 30 -23 46 -320 224 -140 83 -336 205 -436 270 -99 66 -185 119 -190 119 -5 0 -52 -20 -104 -43z" id="svg_12" fill="#000000" fill-opacity="1"/>
<path d="M5045 14389 c-66 -39 -264 -146 -440 -236 -778 -402 -928 -483 -1300 -706 -409 -244 -955 -616 -1265 -861 -69 -54 -191 -166 -273 -248 -508 -514 -846 -1044 -1015 -1593 -107 -350 -187 -745 -227 -1128 -47 -454 -17 -1197 71 -1757 44 -281 170 -881 187 -892 6 -4 25 -8 40 -8 36 0 49 31 72 170 58 364 227 864 427 1264 251 502 517 918 858 1341 301 373 781 865 1200 1232 175 152 355 298 1065 860 685 542 796 634 935 779 132 137 190 218 264 369 82 166 116 267 123 370 l6 81 -80 99 c-137 172 -239 341 -338 564 -50 112 -66 156 -95 268 -12 48 -54 103 -79 103 -9 0 -70 -32 -136 -71z" id="svg_13" fill="#000000" fill-opacity="1"/>
<path d="M14466 14430 c-14 -17 -30 -50 -36 -73 -29 -112 -45 -156 -95 -268 -99 -223 -201 -392 -338 -564 l-80 -99 6 -81 c7 -103 41 -204 123 -370 74 -151 132 -232 264 -369 139 -145 250 -237 935 -779 710 -562 890 -708 1065 -860 419 -367 899 -859 1200 -1232 341 -423 607 -838 858 -1341 195 -391 370 -907 427 -1264 23 -139 36 -170 72 -170 15 0 34 4 40 8 27 17 179 795 217 1112 111 919 78 1646 -106 2370 -136 536 -287 871 -574 1273 -174 243 -471 584 -640 733 -277 245 -904 683 -1419 991 -372 223 -522 304 -1300 706 -176 90 -374 197 -440 236 -66 39 -127 71 -136 71 -10 0 -29 -14 -43 -30z" id="svg_14" fill="#000000" fill-opacity="1"/>
<path d="M5383 11952 c-49 -43 -151 -130 -228 -192 -1634 -1330 -2106 -1771 -2430 -2270 -382 -590 -598 -1198 -682 -1915 -21 -183 -24 -683 -5 -905 27 -311 83 -697 132 -922 183 -827 550 -1715 1075 -2603 78 -132 170 -289 205 -350 67 -115 75 -125 102 -125 35 0 39 53 48 620 5 305 14 598 20 650 5 52 15 138 20 190 38 338 126 805 236 1245 203 812 522 1588 932 2267 338 561 537 825 1082 1438 397 448 586 670 668 789 55 79 51 125 -25 283 -170 355 -317 640 -340 658 -52 41 -146 18 -291 -69 -267 -160 -935 -768 -1223 -1111 -194 -232 -393 -503 -571 -775 -381 -582 -738 -1411 -912 -2117 -87 -353 -128 -584 -196 -1090 -7 -49 -16 -88 -21 -88 -12 0 -11 599 1 835 31 571 130 1023 348 1586 183 472 373 836 641 1229 457 671 965 1212 1677 1788 84 67 166 138 183 157 46 53 42 84 -33 244 -67 142 -131 297 -161 391 -60 188 -91 240 -144 240 -12 0 -60 -35 -108 -78z" id="svg_15" fill="#000000" fill-opacity="1"/>
<path d="M14154 12012 c-29 -23 -36 -38 -87 -188 -60 -174 -97 -264 -173 -425 -75 -160 -79 -191 -33 -244 17 -19 99 -90 183 -157 559 -452 1004 -895 1367 -1363 445 -572 711 -1035 951 -1654 218 -563 317 -1015 348 -1586 13 -250 13 -835 0 -835 -5 0 -10 2 -10 3 0 17 -54 406 -74 532 -115 731 -346 1446 -691 2135 -180 361 -308 573 -555 920 -327 461 -615 778 -1056 1164 -447 392 -632 516 -768 516 -37 0 -48 -5 -70 -30 -23 -28 -182 -341 -329 -648 -76 -158 -80 -204 -25 -283 82 -119 271 -341 668 -789 545 -613 744 -877 1082 -1438 410 -679 729 -1455 932 -2267 110 -440 198 -907 236 -1245 5 -52 15 -138 20 -190 6 -52 15 -345 20 -650 9 -568 13 -620 48 -620 27 0 35 10 102 125 35 61 127 218 205 350 525 888 892 1776 1075 2603 49 225 105 611 132 922 19 222 16 722 -5 905 -84 717 -299 1322 -682 1915 -322 498 -794 939 -2430 2270 -77 62 -179 149 -228 192 -92 82 -115 91 -153 60z" id="svg_16" fill="#000000" fill-opacity="1"/>
<path d="M8150 10593 c0 -88 24 -181 69 -273 63 -127 108 -196 153 -234 58 -50 332 -187 623 -311 454 -194 706 -329 736 -395 14 -29 18 -89 23 -375 5 -312 4 -342 -12 -366 -9 -15 -73 -75 -142 -134 -275 -236 -364 -300 -535 -381 -175 -83 -251 -105 -387 -111 -147 -7 -215 5 -398 69 -205 71 -248 82 -266 68 -24 -21 -65 -170 -71 -261 -12 -176 62 -366 192 -495 40 -38 86 -76 104 -84 36 -15 16 -30 201 146 150 142 468 364 608 426 137 60 339 115 507 139 116 16 464 16 580 0 168 -24 370 -79 507 -139 140 -62 458 -284 608 -426 185 -176 165 -161 201 -146 18 8 64 46 104 84 130 129 204 319 192 495 -6 91 -47 240 -71 261 -18 14 -61 3 -266 -68 -183 -64 -251 -76 -398 -69 -136 6 -212 28 -387 111 -171 81 -260 145 -535 381 -69 59 -133 119 -142 134 -16 24 -17 54 -12 366 5 286 9 346 23 375 30 66 282 201 736 395 291 124 565 261 623 311 45 38 90 107 153 234 45 92 69 185 69 273 0 56 -1 57 -27 57 -19 0 -56 -21 -113 -66 -124 -95 -208 -149 -265 -169 -40 -14 -101 -19 -300 -24 l-250 -7 -88 -46 c-95 -50 -262 -107 -397 -135 -62 -13 -130 -18 -255 -18 -125 0 -193 5 -255 18 -135 28 -302 85 -397 135 l-88 46 -250 7 c-199 5 -260 10 -300 24 -57 20 -141 74 -265 169 -57 45 -94 66 -112 66 -27 0 -28 -1 -28 -57z" id="svg_17" fill="#000000" fill-opacity="1"/>
<path d="M7174 10294 c-21 -84 152 -304 366 -466 118 -89 273 -170 370 -192 131 -31 530 -30 561 1 13 13 -3 48 -30 62 -10 6 -91 26 -180 46 -89 20 -196 47 -239 61 -199 67 -395 187 -576 354 -138 128 -184 160 -230 160 -30 0 -37 -4 -42 -26z" id="svg_18" fill="#000000" fill-opacity="1"/>
<path d="M6956 10184 c-9 -8 -16 -22 -16 -29 0 -22 54 -152 108 -261 98 -198 177 -308 312 -437 131 -126 257 -198 436 -249 118 -34 318 -30 621 10 332 45 406 48 608 26 94 -10 202 -19 240 -19 l70 0 3 31 c3 27 -4 38 -44 72 -26 22 -88 61 -138 86 -190 97 -358 114 -686 71 -266 -34 -504 -36 -624 -5 -253 67 -432 212 -710 578 -107 140 -142 165 -180 126z" id="svg_19" fill="#000000" fill-opacity="1"/>
<path d="M6691 9403 c-20 -21 -137 -157 -261 -303 -607 -713 -778 -961 -1100 -1595 -125 -246 -169 -346 -284 -642 -98 -252 -126 -335 -194 -568 -252 -861 -332 -1465 -332 -2520 0 -290 4 -376 25 -580 47 -468 95 -715 222 -1145 118 -403 226 -659 382 -904 144 -227 245 -345 297 -349 26 -2 29 1 32 30 2 18 -11 84 -27 147 -69 257 -109 509 -147 926 -20 221 -15 636 11 900 16 163 104 710 149 924 61 289 192 747 298 1036 359 980 866 1918 1628 3010 87 124 165 239 173 256 l16 32 -192 144 c-105 80 -216 166 -245 192 -119 108 -238 288 -276 416 -9 30 -34 175 -56 322 -37 259 -49 308 -72 308 -5 0 -27 -17 -47 -37z" id="svg_20" fill="#000000" fill-opacity="1"/>
<path d="M12930 9419 c-6 -11 -29 -140 -50 -287 -22 -147 -47 -292 -56 -322 -38 -128 -157 -308 -276 -416 -29 -26 -140 -112 -245 -192 l-192 -144 16 -32 c8 -17 86 -132 173 -256 359 -515 606 -904 853 -1345 472 -842 804 -1633 987 -2353 22 -86 49 -190 60 -231 40 -148 146 -777 171 -1009 29 -279 36 -698 15 -932 -38 -418 -78 -669 -147 -926 -16 -63 -29 -129 -27 -147 3 -29 6 -32 32 -30 52 4 153 122 297 349 156 245 264 501 382 904 127 430 175 677 222 1145 21 204 25 290 25 580 0 1055 -80 1659 -332 2520 -68 233 -96 316 -194 568 -115 296 -159 396 -284 642 -322 634 -493 882 -1100 1595 -308 363 -307 362 -330 319z" id="svg_21" fill="#000000" fill-opacity="1"/>
<path d="M10806 8884 c-21 -20 -20 -48 0 -69 39 -38 314 -159 430 -189 190 -48 336 -23 578 99 135 67 167 98 148 140 -15 33 -50 33 -167 -1 -79 -24 -113 -27 -284 -31 -219 -6 -362 6 -513 43 -116 28 -170 30 -192 8z" id="svg_22" fill="#000000" fill-opacity="1"/>
<path d="M7412 6958 c-541 -904 -714 -1234 -909 -1743 -347 -902 -428 -1312 -427 -2175 0 -452 22 -694 100 -1073 114 -558 241 -894 495 -1319 173 -289 291 -455 416 -586 49 -52 64 -62 92 -62 l34 0 -7 79 c-20 248 -26 366 -37 756 -35 1342 65 2859 257 3890 106 565 190 906 404 1631 61 203 110 382 110 397 0 41 -31 110 -120 267 -104 183 -165 270 -190 270 -14 0 -69 -83 -218 -332z" id="svg_23" fill="#000000" fill-opacity="1"/>
<path d="M12026 7267 c-26 -26 -169 -264 -228 -379 -22 -42 -42 -95 -45 -116 -4 -30 20 -122 106 -413 215 -728 299 -1068 405 -1634 191 -1023 291 -2534 257 -3865 -11 -395 -17 -524 -37 -777 l-7 -83 34 0 c28 0 43 10 92 62 125 131 243 297 416 586 251 419 377 754 491 1297 114 549 138 1123 74 1785 -44 458 -139 814 -397 1485 -107 280 -185 454 -301 680 -191 369 -795 1395 -822 1395 -8 0 -25 -10 -38 -23z" id="svg_24" fill="#000000" fill-opacity="1"/>
<path d="M8462 6468 c-15 -19 -105 -248 -141 -361 -108 -340 -195 -749 -260 -1237 -47 -350 -59 -455 -82 -750 -40 -499 -27 -918 42 -1350 24 -155 108 -485 160 -638 131 -379 379 -718 708 -965 112 -85 179 -120 218 -115 40 4 41 38 3 132 -41 104 -108 330 -180 609 -175 684 -307 1394 -365 1962 -53 526 -81 1816 -53 2401 12 258 8 316 -23 322 -9 2 -21 -3 -27 -10z" id="svg_25" fill="#000000" fill-opacity="1"/>
<path d="M11179 6453 c-8 -20 -8 -90 -3 -228 15 -335 8 -1419 -10 -1795 -32 -654 -54 -875 -137 -1375 -106 -636 -331 -1572 -449 -1871 -39 -98 -37 -128 8 -132 44 -4 131 48 272 161 305 245 535 576 655 942 56 169 128 457 154 615 97 592 87 1161 -40 2100 -65 488 -152 897 -260 1237 -36 112 -126 342 -141 361 -17 20 -38 14 -49 -15z" id="svg_26" fill="#000000" fill-opacity="1"/>
<path d="M9310 6283 c-19 -3 -41 -9 -47 -15 -49 -40 55 -1812 157 -2683 34 -285 71 -469 141 -700 67 -216 217 -596 261 -658 l21 -30 23 29 c41 51 186 413 258 644 97 313 130 510 191 1145 59 617 125 1720 125 2086 0 133 -2 159 -17 170 -13 11 -113 14 -547 15 -292 1 -547 -1 -566 -3z" id="svg_27" fill="#000000" fill-opacity="1"/>
</g></g></svg>