<?xml version="1.0" standalone="no"?>
<!DOCTYPE svg PUBLIC "-//W3C//DTD SVG 20010904//EN"
 "http://www.w3.org/TR/2001/REC-SVG-20010904/DTD/svg10.dtd">
<svg version="1.0" xmlns="http://www.w3.org/2000/svg"
 width="2190.000000pt" height="2190.000000pt" viewBox="0 0 2190.000000 2190.000000"
 preserveAspectRatio="xMidYMid meet">
<metadata>
Created by potrace 1.14, written by Peter Selinger 2001-2017
</metadata>
<g transform="translate(0.000000,2190.000000) scale(0.100000,-0.100000)"
fill="#000000" stroke="none">
<path d="M7736 21878 c10 -13 112 -117 226 -233 297 -302 505 -521 614 -644
133 -152 189 -219 286 -351 271 -368 513 -844 594 -1169 29 -119 65 -273 70
-301 11 -63 44 -184 53 -193 35 -35 163 391 178 590 15 199 6 620 -17 773 -37
247 -155 518 -297 682 -59 67 -281 283 -352 341 -191 157 -456 309 -646 371
-216 71 -593 156 -693 156 l-35 0 19 -22z"/>
<path d="M14020 21884 c-36 -8 -78 -17 -95 -20 -78 -14 -371 -90 -465 -120
-185 -61 -488 -239 -662 -389 -87 -74 -231 -215 -311 -303 -153 -168 -278
-441 -313 -680 -3 -20 -7 -43 -9 -50 -22 -63 -25 -739 -4 -832 49 -220 73
-310 116 -423 26 -70 57 -102 67 -69 5 17 40 182 50 232 4 22 20 92 31 140 93
379 260 744 517 1128 207 310 404 537 889 1027 286 288 349 355 349 368 0 11
-89 7 -160 -9z"/>
<path d="M10943 21088 c-13 -17 -36 -132 -87 -433 -64 -372 -197 -759 -405
-1175 -180 -358 -361 -638 -615 -945 -50 -60 -95 -115 -101 -121 -5 -6 -39
-44 -75 -85 -187 -211 -403 -417 -603 -572 -139 -109 -416 -290 -637 -418 -70
-40 -404 -209 -414 -209 -3 0 -37 -15 -78 -34 -69 -31 -227 -99 -433 -185 -49
-21 -169 -68 -265 -106 -96 -37 -184 -71 -195 -76 -28 -12 -147 -56 -225 -84
-36 -12 -135 -47 -220 -78 -288 -103 -807 -276 -1115 -372 -567 -175 -733
-238 -1091 -415 -663 -326 -1122 -617 -1514 -959 -79 -68 -347 -335 -415 -412
-181 -206 -461 -589 -610 -834 -120 -197 -325 -634 -420 -895 -14 -41 -29 -82
-32 -90 -3 -8 -7 -19 -9 -25 -1 -5 -12 -39 -22 -75 -61 -200 -145 -504 -157
-565 -3 -16 -12 -66 -20 -110 -12 -67 -33 -180 -61 -330 -11 -59 -16 -174 -10
-209 4 -21 15 -40 28 -47 26 -14 44 3 84 81 60 115 209 330 357 515 67 83 284
341 322 381 5 6 55 60 110 120 156 170 409 417 530 518 341 285 799 597 1265
863 504 288 873 462 1690 800 47 19 99 41 115 48 17 7 59 25 95 39 36 15 76
32 90 38 54 23 87 37 140 58 30 12 70 28 88 36 17 8 47 20 65 28 17 8 77 33
132 56 129 54 146 62 295 133 203 96 232 109 242 99 5 -5 3 -36 -5 -73 -21
-100 -22 -193 -1 -213 21 -22 33 -19 249 54 215 73 224 77 231 94 7 18 -10 37
-228 259 -92 94 -164 175 -162 179 3 5 24 6 47 4 67 -9 378 -20 544 -21 142 0
154 1 174 21 l21 21 -91 233 c-50 129 -88 237 -83 242 11 11 75 16 297 23 105
3 215 8 245 11 128 12 134 17 127 99 -4 51 -36 255 -52 335 -3 14 -7 58 -10
98 -5 68 -4 72 16 72 21 0 157 -42 194 -60 48 -24 235 -88 273 -95 76 -12 76
-12 159 195 21 52 60 134 86 182 89 163 301 439 346 451 29 7 77 -21 246 -147
226 -168 242 -179 272 -172 20 6 37 33 98 159 40 84 94 199 119 257 58 130 91
193 105 198 10 3 30 -23 186 -246 47 -68 96 -135 109 -150 178 -206 275 -297
446 -421 47 -33 90 -65 95 -69 22 -17 133 -82 140 -82 13 0 153 89 232 147
141 104 267 219 389 354 71 80 109 131 273 370 17 24 42 58 56 74 l25 30 18
-24 c9 -14 33 -61 53 -105 58 -130 78 -172 155 -333 60 -126 77 -153 98 -159
28 -7 54 9 236 146 182 137 238 173 265 173 35 0 78 -43 180 -178 134 -178
214 -316 275 -472 56 -144 72 -173 98 -180 35 -9 100 10 310 89 100 37 194 68
208 68 l27 0 -7 -72 c-6 -72 -12 -114 -21 -154 -3 -12 -7 -39 -10 -60 -3 -21
-10 -64 -15 -94 -31 -178 -23 -214 46 -218 22 -2 53 -5 69 -7 17 -2 120 -6
230 -10 229 -7 296 -12 308 -24 7 -7 -15 -77 -43 -136 -18 -39 -118 -300 -120
-315 -6 -37 1 -50 33 -59 45 -13 458 -4 690 15 31 2 57 1 57 -3 0 -7 -5 -13
-182 -193 -207 -212 -220 -227 -209 -249 7 -13 75 -40 224 -90 117 -39 221
-71 230 -71 39 0 48 117 19 233 -10 40 -12 61 -4 69 7 7 49 -9 139 -52 107
-51 278 -128 468 -210 22 -10 103 -43 180 -75 77 -32 226 -94 330 -137 105
-44 226 -95 270 -113 199 -83 547 -231 613 -261 41 -19 75 -34 78 -34 8 0 450
-220 552 -274 208 -112 258 -139 284 -157 14 -11 29 -19 32 -19 12 0 364 -214
521 -317 309 -203 640 -449 826 -613 126 -112 418 -409 554 -564 6 -6 43 -49
84 -96 40 -47 85 -98 100 -115 202 -233 448 -574 513 -711 11 -25 32 -53 45
-62 24 -15 26 -15 45 9 17 21 18 35 14 124 -5 87 -10 126 -30 230 -19 99 -38
204 -41 220 -11 90 -92 399 -182 695 -71 234 -273 701 -416 960 -115 209 -393
604 -606 860 -117 140 -378 404 -521 527 -101 87 -338 267 -430 328 -25 17
-49 34 -55 39 -37 31 -377 235 -570 341 -200 110 -658 334 -805 393 -134 54
-370 135 -590 202 -1105 338 -2225 758 -2830 1060 -346 172 -732 418 -965 615
-287 242 -604 584 -857 925 -384 517 -709 1217 -817 1760 -6 30 -14 66 -16 80
-3 14 -8 41 -11 60 -3 19 -9 58 -15 85 -5 28 -20 110 -34 183 -22 118 -38 172
-49 172 -2 0 -8 -6 -13 -12z"/>
<path d="M6858 20705 c-2 -2 -32 -6 -68 -9 -65 -7 -85 -11 -195 -40 -230 -63
-505 -213 -831 -457 -89 -67 -154 -130 -154 -149 0 -15 46 -12 183 9 196 31
223 33 397 36 212 3 374 -15 650 -72 41 -8 82 -16 90 -18 27 -5 144 -36 175
-46 17 -5 62 -18 100 -29 274 -80 867 -350 1250 -570 301 -173 355 -196 355
-152 0 22 -138 254 -265 447 -197 299 -404 529 -620 687 -5 4 -24 19 -42 33
-167 134 -476 285 -633 310 -25 3 -58 9 -75 12 -33 5 -312 12 -317 8z"/>
<path d="M14703 20694 c-107 -19 -275 -78 -389 -138 -86 -45 -221 -128 -261
-161 -7 -5 -18 -14 -25 -20 -240 -186 -343 -286 -493 -481 -41 -55 -79 -104
-84 -109 -63 -80 -337 -528 -346 -567 -6 -25 -4 -28 17 -28 29 0 96 34 341
173 161 91 551 290 697 354 25 11 66 30 92 42 239 107 494 191 758 250 117 26
183 39 350 66 162 26 535 26 660 0 14 -3 45 -8 69 -11 24 -3 67 -9 94 -15 68
-12 117 -11 117 3 0 33 -208 198 -430 341 -229 148 -504 264 -695 294 -16 2
-41 7 -55 10 -52 11 -347 9 -417 -3z"/>
<path d="M6108 19815 c-2 -2 -25 -6 -53 -9 -27 -4 -57 -9 -65 -11 -8 -2 -27
-6 -41 -9 -65 -11 -234 -60 -334 -97 -276 -103 -546 -270 -804 -496 -122 -107
-336 -317 -463 -454 -315 -340 -408 -452 -408 -495 0 -21 4 -23 38 -19 20 2
74 17 119 34 106 39 353 138 375 151 10 6 23 10 29 10 6 0 25 6 42 14 124 53
557 193 718 231 78 18 260 56 294 60 168 22 287 29 525 28 243 -1 273 -5 590
-83 155 -38 284 -67 330 -74 19 -3 46 -8 60 -10 195 -36 802 -43 1040 -11 149
19 243 43 435 109 327 112 528 197 532 226 6 35 -13 43 -147 55 -124 11 -165
15 -185 19 -11 2 -42 7 -70 10 -27 4 -68 11 -90 16 -22 5 -51 11 -65 13 -14 3
-45 10 -70 17 -25 7 -53 14 -63 16 -56 10 -437 131 -527 167 -58 23 -280 129
-495 237 -626 314 -731 347 -1102 354 -78 2 -144 2 -145 1z"/>
<path d="M15427 19804 c-230 -36 -351 -84 -847 -333 -396 -199 -523 -256 -710
-316 -211 -68 -464 -136 -559 -150 -20 -3 -46 -7 -57 -9 -52 -10 -143 -21
-274 -31 -122 -11 -151 -25 -131 -63 10 -20 107 -64 261 -122 47 -17 94 -36
105 -41 31 -14 376 -127 410 -134 199 -39 338 -50 665 -50 300 0 452 10 586
36 28 5 63 12 79 15 48 9 142 30 365 82 118 28 254 55 301 59 130 13 546 6
649 -11 23 -4 46 -7 145 -21 22 -3 60 -10 85 -16 25 -5 55 -11 67 -14 86 -15
541 -154 708 -215 72 -26 227 -87 345 -135 288 -117 342 -131 348 -87 4 26
-66 118 -193 258 -5 6 -48 53 -95 105 -133 148 -516 527 -615 610 -256 215
-454 339 -700 441 -162 67 -347 119 -480 134 -27 3 -53 8 -58 11 -20 12 -318
10 -400 -3z"/>
<path d="M9368 18790 c-20 -10 -95 -62 -167 -115 -253 -185 -363 -247 -556
-315 -121 -42 -304 -95 -401 -115 -43 -9 -88 -19 -99 -21 -76 -16 -270 -42
-375 -50 -347 -24 -1238 -23 -1895 3 -331 13 -800 7 -1000 -12 -131 -13 -166
-17 -225 -26 -36 -6 -76 -12 -90 -14 -44 -6 -132 -25 -174 -36 -23 -6 -48 -12
-56 -14 -58 -11 -317 -94 -374 -119 -17 -8 -60 -27 -96 -42 -91 -39 -243 -119
-320 -169 -126 -80 -343 -277 -489 -440 -214 -241 -433 -600 -565 -930 -27
-66 -52 -129 -57 -140 -23 -56 -83 -252 -121 -395 -29 -112 -33 -127 -43 -171
-2 -11 -6 -28 -9 -37 -3 -9 -7 -28 -10 -42 -2 -14 -9 -45 -15 -70 -6 -25 -11
-57 -11 -72 0 -24 4 -28 28 -28 37 0 58 11 227 119 318 204 524 320 880 495
509 251 922 409 1595 609 76 23 406 113 448 122 9 2 71 18 137 35 155 39 370
89 415 96 19 3 38 8 41 9 3 2 59 13 125 24 65 12 133 23 149 27 27 5 352 75
435 94 55 13 269 69 330 87 30 9 60 18 65 19 32 6 297 93 395 129 198 74 486
212 659 317 34 21 65 38 67 38 3 0 131 80 204 127 19 13 42 28 50 33 74 47
250 176 315 230 139 117 325 309 425 440 19 25 37 47 40 50 12 10 128 167 153
207 29 45 35 83 14 83 -7 0 -29 -9 -49 -20z"/>
<path d="M12483 18788 c1 -13 9 -34 16 -48 12 -22 92 -134 128 -180 6 -8 33
-42 59 -75 203 -255 417 -455 679 -633 66 -45 125 -86 132 -92 7 -5 14 -10 17
-10 3 0 49 -28 103 -62 439 -276 853 -447 1473 -607 155 -40 330 -81 410 -96
14 -2 50 -9 80 -15 30 -7 69 -14 85 -16 126 -21 386 -74 510 -105 44 -11 89
-21 100 -24 101 -21 513 -132 780 -210 632 -185 1250 -437 1820 -743 192 -103
274 -151 578 -343 166 -105 186 -116 205 -113 6 1 17 2 23 3 19 2 4 87 -55
321 -64 252 -118 434 -161 535 -7 17 -18 46 -26 65 -37 101 -154 342 -227 469
-186 323 -418 597 -712 841 -161 133 -372 243 -695 360 -131 48 -440 119 -585
134 -30 4 -73 9 -95 11 -85 11 -114 14 -245 21 -162 9 -633 10 -855 1 -762
-31 -1705 -27 -2000 8 -22 3 -60 7 -85 10 -25 3 -56 7 -70 10 -14 3 -41 7 -60
10 -19 4 -75 15 -125 26 -49 12 -97 22 -107 24 -46 10 -275 81 -358 112 -171
63 -366 181 -610 371 -38 30 -99 62 -116 62 -10 0 -14 -8 -11 -22z"/>
<path d="M8403 14739 c-12 -4 -102 -59 -201 -121 -98 -62 -187 -118 -198 -125
-484 -294 -534 -328 -534 -357 0 -27 63 -85 126 -116 60 -30 71 -32 98 -21
129 49 241 82 273 79 l38 -3 31 -107 c43 -146 63 -168 244 -260 200 -102 299
-130 495 -142 39 -3 115 -7 170 -11 123 -8 152 -18 160 -56 6 -26 -1 -163 -11
-212 -2 -12 -9 -59 -16 -104 -17 -116 -14 -118 115 -64 139 58 153 60 160 24
3 -15 4 -116 2 -223 -5 -196 -7 -232 -19 -305 -3 -22 -9 -58 -12 -80 -18 -128
-95 -410 -221 -810 -114 -361 -162 -521 -168 -557 -5 -29 8 -58 26 -58 28 0
242 510 439 1045 100 270 150 434 184 600 24 114 29 145 41 233 3 20 7 51 10
67 3 17 7 55 10 85 16 187 19 206 39 254 15 36 12 87 -9 191 -1 6 -5 33 -8 60
-10 77 -28 207 -33 235 -2 14 -7 41 -10 60 -21 137 -67 244 -129 297 -71 63
-247 133 -395 159 -43 8 -173 44 -189 54 -9 5 -23 33 -31 62 -12 39 -21 54
-36 56 -20 3 -80 -33 -131 -79 -65 -58 -188 -152 -212 -160 -30 -12 -44 5 -29
35 5 12 54 56 108 98 55 42 107 89 116 104 18 26 18 27 -11 50 -29 23 -131 76
-219 113 -27 12 -49 15 -63 10z"/>
<path d="M13376 14690 c-138 -64 -156 -75 -156 -96 0 -20 82 -99 182 -174 60
-45 74 -68 56 -86 -21 -22 -64 7 -275 183 -41 34 -89 57 -105 50 -9 -3 -18
-18 -22 -34 -21 -89 -21 -89 -251 -143 -71 -16 -143 -35 -160 -41 -69 -25
-173 -81 -211 -113 -61 -52 -107 -159 -129 -296 -3 -19 -7 -46 -10 -60 -5 -27
-11 -76 -20 -155 -3 -27 -8 -61 -10 -75 -3 -14 -7 -38 -9 -55 -3 -16 -8 -50
-12 -75 -10 -69 -9 -90 8 -150 9 -30 19 -86 23 -125 3 -38 8 -88 10 -110 3
-22 7 -62 10 -90 3 -27 10 -75 15 -105 5 -30 12 -73 16 -95 3 -22 13 -69 21
-105 8 -36 17 -75 19 -88 45 -236 556 -1542 604 -1542 21 0 27 45 14 100 -7
30 -43 150 -79 265 -154 486 -181 575 -231 765 -24 90 -46 180 -49 200 -3 19
-7 42 -10 50 -6 21 -14 67 -21 120 -3 25 -8 56 -10 70 -2 14 -7 122 -10 240
-8 280 -14 269 127 213 141 -57 146 -58 158 -35 6 11 9 21 6 23 -2 2 -6 24 -9
49 -4 25 -9 56 -11 70 -3 14 -7 36 -10 49 -10 52 -17 191 -11 214 10 41 2 40
336 63 178 12 276 39 453 124 212 101 241 130 281 279 14 52 31 98 38 103 26
16 75 7 206 -38 l134 -46 52 26 c62 30 136 96 136 120 0 32 -12 41 -425 292
-115 70 -250 153 -299 186 -48 32 -91 58 -94 58 -3 0 -13 6 -21 14 -15 13
-106 66 -113 66 -2 0 -61 -27 -132 -60z"/>
<path d="M6120 14369 c-190 -104 -308 -167 -580 -307 -107 -56 -229 -119 -270
-141 -41 -23 -85 -45 -96 -50 -20 -9 -248 -131 -354 -189 -461 -252 -1213
-743 -1610 -1049 -129 -99 -337 -294 -470 -439 -114 -124 -293 -340 -340 -409
-8 -13 -40 -58 -70 -101 -205 -294 -353 -586 -457 -904 -13 -41 -26 -82 -28
-90 -2 -8 -15 -57 -29 -108 -52 -181 -132 -569 -151 -727 -3 -27 -8 -59 -10
-70 -3 -11 -7 -47 -11 -80 -3 -33 -7 -73 -9 -90 -12 -92 -19 -300 -19 -520 0
-271 8 -457 29 -714 11 -139 15 -176 20 -211 2 -19 7 -56 10 -82 5 -45 7 -60
20 -153 10 -72 46 -278 66 -378 10 -53 21 -112 24 -130 3 -17 8 -39 10 -47 2
-8 6 -26 9 -40 20 -111 72 -324 86 -357 7 -16 18 -23 39 -23 24 0 31 6 44 38
8 21 18 55 21 77 37 233 129 569 229 835 151 403 387 854 676 1290 94 143 347
491 371 510 3 3 35 41 70 85 35 44 67 82 70 85 4 3 40 43 80 90 216 248 587
623 866 875 54 50 101 92 104 96 12 13 325 273 415 344 55 44 105 84 111 90 6
5 125 100 264 210 959 759 1063 845 1225 1010 146 148 207 234 290 408 76 158
100 230 111 339 8 69 2 97 -28 129 -176 193 -385 570 -464 838 -26 86 -65 151
-91 151 -4 0 -82 -41 -173 -91z"/>
<path d="M15582 14432 c-18 -19 -37 -62 -56 -123 -32 -110 -98 -266 -168 -399
-43 -82 -175 -291 -214 -339 -7 -9 -36 -44 -65 -79 l-51 -63 5 -77 c8 -113 45
-221 134 -397 113 -223 270 -391 668 -714 11 -9 40 -32 65 -51 25 -19 47 -37
50 -40 3 -3 93 -75 200 -160 107 -85 202 -160 210 -167 8 -6 206 -164 440
-350 390 -311 571 -460 689 -568 403 -366 782 -753 1052 -1075 140 -167 386
-493 444 -588 6 -9 45 -70 88 -135 407 -620 722 -1363 828 -1956 11 -63 28
-132 36 -153 14 -35 19 -38 49 -36 19 1 34 2 34 3 0 0 11 45 25 99 30 119 76
342 111 536 8 47 17 96 20 110 12 64 25 139 30 185 4 28 8 52 9 55 2 3 6 33
10 65 3 33 8 69 10 80 2 11 7 49 10 85 3 36 8 79 10 95 2 17 7 68 10 115 4 47
8 96 11 110 24 140 23 891 -1 1085 -2 17 -6 59 -9 95 -4 36 -8 76 -10 90 -2
14 -7 50 -11 80 -4 30 -8 64 -10 75 -2 11 -6 38 -10 61 -8 57 -11 72 -40 214
-30 142 -26 124 -59 255 -21 86 -37 140 -97 342 -35 117 -98 271 -182 443
-202 417 -654 985 -1040 1307 -68 57 -327 249 -472 350 -88 61 -164 116 -170
120 -15 13 -159 107 -170 112 -5 2 -14 8 -20 13 -19 17 -181 121 -355 228
-323 197 -474 285 -680 393 -63 33 -119 63 -125 67 -5 4 -95 51 -200 105 -104
54 -221 114 -260 135 -38 20 -146 77 -240 126 -93 48 -237 125 -318 170 -81
46 -157 86 -168 89 -14 5 -27 -2 -47 -23z"/>
<path d="M6532 11983 c-33 -27 -127 -104 -208 -172 -162 -136 -250 -209 -310
-257 -50 -40 -282 -230 -309 -252 -11 -9 -45 -37 -75 -62 -30 -25 -60 -49 -66
-55 -6 -5 -32 -28 -59 -50 -27 -22 -67 -56 -90 -75 -23 -19 -65 -55 -95 -80
-30 -25 -91 -76 -136 -115 -44 -38 -123 -106 -175 -150 -386 -330 -751 -681
-935 -901 -348 -416 -645 -1002 -793 -1564 -29 -111 -65 -268 -76 -340 -3 -19
-8 -42 -10 -50 -4 -15 -21 -126 -31 -205 -3 -22 -7 -50 -9 -61 -24 -111 -24
-804 0 -994 2 -19 6 -62 10 -95 5 -56 30 -256 41 -335 11 -77 35 -219 50 -295
9 -44 18 -89 19 -100 30 -193 245 -900 340 -1120 7 -16 31 -77 54 -135 23 -58
46 -114 51 -125 5 -11 37 -83 71 -160 149 -342 339 -703 637 -1215 212 -364
225 -381 251 -332 19 35 20 58 37 817 6 302 9 373 19 475 8 94 38 338 51 415
3 17 7 44 10 60 2 17 6 41 9 55 3 14 7 41 10 60 28 180 117 590 184 850 51
198 134 489 151 525 4 11 21 58 36 105 116 367 375 959 584 1335 128 231 320
543 450 729 41 59 82 118 90 130 45 67 246 322 343 437 91 107 132 155 206
238 46 53 109 125 140 160 31 35 61 69 66 75 9 9 240 274 312 356 110 126 265
321 293 366 60 99 56 111 -155 535 -176 354 -207 406 -244 414 -84 18 -219
-45 -420 -198 -101 -76 -277 -223 -391 -327 -458 -416 -695 -675 -1001 -1095
-147 -202 -325 -474 -393 -600 -21 -38 -44 -77 -51 -85 -14 -17 -254 -497
-275 -550 -8 -19 -28 -67 -46 -105 -90 -197 -228 -572 -306 -830 -70 -232
-167 -644 -193 -820 -3 -22 -7 -47 -10 -55 -2 -8 -6 -33 -10 -55 -3 -22 -10
-68 -16 -103 -5 -34 -12 -82 -15 -106 -2 -24 -6 -52 -8 -63 -2 -10 -7 -46 -11
-78 -4 -33 -9 -67 -11 -77 -1 -9 -6 -37 -10 -63 -17 -117 -23 10 -19 411 3
236 6 440 9 454 2 14 7 66 10 115 4 50 9 101 11 115 2 14 7 48 10 75 10 82 23
164 50 320 3 17 26 113 51 214 118 479 383 1127 626 1530 21 34 38 65 38 67 0
27 469 699 520 744 3 3 39 48 81 100 42 52 86 106 98 120 86 98 144 163 196
220 79 85 353 359 436 435 36 33 87 81 114 106 61 56 285 245 468 397 159 131
175 154 157 224 -6 27 -22 70 -35 96 -12 26 -39 85 -59 132 -21 47 -46 103
-56 125 -9 22 -38 100 -63 172 -51 147 -69 187 -100 221 -29 32 -47 28 -115
-25z"/>
<path d="M15264 12011 c-20 -16 -55 -83 -69 -131 -13 -46 -97 -275 -105 -285
-4 -5 -11 -21 -15 -35 -4 -13 -23 -58 -43 -100 -95 -205 -102 -234 -74 -283
14 -25 131 -127 348 -304 22 -17 48 -40 59 -50 11 -10 52 -45 90 -78 369 -317
805 -769 1045 -1083 14 -18 46 -60 72 -93 58 -73 267 -368 332 -468 432 -663
760 -1500 865 -2201 19 -128 23 -166 36 -305 3 -33 8 -85 11 -115 9 -97 13
-884 5 -905 -7 -19 -17 32 -37 190 -2 22 -7 51 -9 65 -3 14 -8 45 -11 70 -7
51 -7 50 -28 190 -19 128 -21 134 -52 290 -14 69 -28 136 -30 150 -3 14 -7 33
-10 42 -3 9 -6 25 -8 35 -9 41 -59 235 -87 333 -195 682 -518 1398 -875 1940
-109 166 -169 253 -231 335 -5 6 -41 55 -82 110 -170 229 -324 408 -536 621
-183 184 -434 413 -604 550 -13 10 -28 24 -35 30 -19 18 -189 148 -246 188
-81 58 -190 106 -254 113 -52 5 -57 4 -83 -24 -26 -28 -312 -589 -366 -718
-59 -142 -50 -164 202 -465 58 -69 107 -127 110 -130 3 -3 35 -39 71 -80 36
-41 67 -77 70 -80 3 -3 36 -41 75 -85 38 -44 84 -96 101 -115 17 -19 67 -75
110 -125 43 -49 83 -95 89 -101 25 -26 219 -256 301 -355 362 -441 760 -1086
1024 -1659 69 -149 190 -434 190 -446 0 -3 7 -20 15 -37 40 -88 184 -508 244
-717 32 -112 120 -448 127 -490 3 -14 16 -72 29 -130 28 -125 65 -303 71 -345
3 -16 9 -50 14 -75 10 -50 30 -161 35 -200 2 -14 6 -38 9 -55 14 -84 30 -210
41 -310 3 -33 8 -76 10 -95 10 -70 18 -316 30 -935 6 -282 12 -355 31 -375 21
-22 41 -5 96 84 26 43 48 79 48 80 0 2 49 88 110 191 276 469 462 823 620
1182 34 76 68 152 75 168 7 17 32 77 55 135 23 58 45 114 50 125 35 76 183
505 215 625 3 8 16 56 31 105 14 50 27 97 29 105 2 8 11 44 20 80 9 36 18 72
20 80 2 8 12 56 23 105 11 50 23 106 26 125 3 19 10 58 15 87 6 29 13 74 16
100 4 26 8 55 10 63 2 8 7 35 10 60 3 25 8 61 10 80 3 19 8 58 10 85 3 28 7
59 10 70 2 11 7 54 10 95 4 41 8 81 11 88 16 50 23 597 11 838 -6 101 -25 277
-41 359 -2 11 -7 40 -11 65 -80 488 -269 1008 -525 1440 -34 58 -69 118 -78
134 -31 52 -165 240 -230 321 -200 249 -525 569 -957 940 -32 28 -67 58 -79
68 -11 10 -41 36 -66 57 -25 21 -56 48 -70 60 -14 12 -34 29 -45 38 -58 50
-506 421 -538 447 -21 17 -48 39 -60 50 -12 11 -56 47 -97 79 -41 33 -77 62
-80 66 -3 3 -52 43 -110 90 -109 88 -252 206 -355 295 -86 73 -93 78 -118 80
-12 2 -32 -5 -43 -14z"/>
<path d="M9267 10643 c-13 -13 -7 -111 12 -185 30 -115 121 -286 190 -359 47
-48 313 -185 591 -304 36 -15 83 -36 105 -46 22 -10 83 -36 135 -59 259 -113
492 -244 532 -300 12 -17 20 -51 24 -111 7 -115 12 -568 6 -608 -5 -35 -92
-119 -312 -301 -145 -120 -247 -186 -393 -254 -159 -74 -230 -93 -374 -102
-124 -8 -204 7 -418 76 -169 55 -202 64 -232 61 -26 -2 -68 -144 -79 -265 -12
-129 44 -307 133 -424 39 -52 126 -132 164 -153 25 -13 31 -9 140 91 126 116
131 121 239 204 302 231 455 309 735 376 107 26 141 32 235 46 37 5 470 4 510
-1 125 -17 192 -30 302 -61 196 -54 290 -98 468 -217 189 -126 305 -219 450
-357 101 -96 103 -97 149 -67 170 113 285 341 275 547 -3 83 -8 110 -30 190
-20 70 -39 100 -61 95 -43 -8 -117 -30 -233 -70 -69 -23 -154 -49 -190 -57
-92 -21 -247 -20 -351 2 -176 38 -469 196 -624 337 -11 10 -41 35 -67 56 -26
21 -53 43 -60 50 -7 7 -48 43 -91 81 -43 38 -84 80 -91 95 -10 20 -13 86 -10
291 3 300 9 413 24 439 24 45 122 108 341 217 73 36 138 67 144 68 5 1 19 7
31 13 11 7 90 42 175 79 216 93 225 97 404 184 225 110 272 143 327 226 101
152 145 268 155 402 6 79 5 82 -16 82 -25 0 -43 -11 -171 -103 -117 -84 -204
-134 -250 -141 -19 -3 -105 -8 -190 -11 -350 -13 -316 -8 -415 -57 -128 -62
-307 -120 -450 -144 -65 -11 -365 -7 -430 5 -33 7 -71 14 -85 17 -60 12 -243
79 -330 121 -105 50 -74 46 -415 57 -107 4 -189 11 -221 21 -46 13 -162 86
-313 196 -52 37 -80 47 -94 32z"/>
<path d="M8292 10303 c-27 -50 39 -168 170 -304 126 -131 236 -215 376 -287
157 -82 230 -96 487 -96 223 0 278 11 255 54 -14 26 -46 37 -225 80 -215 51
-278 72 -389 127 -141 70 -282 167 -404 278 -19 16 -52 47 -75 68 -97 88 -174
119 -195 80z"/>
<path d="M8065 10180 c-18 -20 -18 -22 0 -73 33 -96 152 -331 216 -427 71
-107 222 -264 314 -327 174 -118 358 -174 552 -167 94 3 244 13 270 18 12 3
48 7 80 11 32 3 72 8 88 10 201 30 384 37 530 21 84 -9 178 -16 263 -20 58 -3
63 -2 68 19 8 32 -8 58 -63 98 -89 65 -242 131 -348 152 -52 10 -247 12 -325
4 -41 -5 -100 -11 -130 -14 -30 -4 -89 -10 -130 -15 -85 -9 -430 -6 -474 4
-227 53 -446 218 -666 502 -126 163 -184 224 -211 224 -9 0 -24 -9 -34 -20z"/>
<path d="M7812 9412 c-29 -30 -80 -87 -154 -173 -25 -30 -55 -64 -66 -77 -11
-13 -35 -41 -52 -62 -17 -21 -41 -49 -52 -62 -11 -13 -37 -43 -57 -68 -20 -25
-39 -47 -42 -50 -4 -3 -52 -61 -108 -130 -56 -69 -110 -134 -119 -145 -94
-111 -290 -382 -381 -528 -71 -113 -171 -284 -171 -293 0 -3 -9 -18 -19 -33
-20 -27 -291 -563 -291 -574 0 -4 -11 -30 -24 -59 -120 -264 -322 -845 -371
-1068 -2 -8 -13 -49 -24 -90 -58 -209 -140 -610 -170 -830 -30 -217 -36 -278
-56 -535 -14 -179 -19 -385 -19 -780 -1 -396 3 -538 18 -650 3 -16 7 -64 11
-105 3 -41 15 -138 26 -215 22 -158 21 -150 44 -265 9 -47 19 -96 21 -110 10
-52 96 -379 125 -475 137 -454 245 -692 450 -995 122 -180 203 -259 242 -239
23 13 21 36 -27 232 -30 124 -62 283 -71 355 -2 12 -8 53 -14 90 -6 37 -13 94
-16 127 -3 33 -8 74 -10 90 -35 233 -40 861 -9 1119 11 87 31 230 39 276 2 14
7 43 10 65 6 43 10 67 25 155 5 30 12 71 15 90 56 353 156 754 289 1160 193
591 539 1345 909 1980 50 85 95 165 101 177 6 13 14 23 19 23 4 0 7 4 7 9 0 8
70 124 200 331 71 114 309 473 387 585 35 50 68 97 73 105 6 8 26 38 45 65 54
78 122 180 134 202 9 19 -4 32 -147 139 -300 226 -327 251 -450 419 -71 98
-120 244 -147 440 -3 23 -7 50 -9 60 -2 11 -11 69 -21 129 -29 186 -33 203
-51 210 -9 4 -26 -5 -42 -22z"/>
<path d="M14046 9432 c-9 -15 -26 -101 -41 -207 -2 -11 -8 -49 -14 -85 -6 -36
-13 -83 -16 -105 -24 -161 -45 -244 -78 -315 -86 -182 -198 -303 -479 -514
-183 -138 -197 -150 -186 -170 6 -11 111 -167 233 -346 123 -179 277 -408 342
-510 111 -172 323 -516 323 -524 0 -2 17 -33 38 -67 22 -35 73 -125 114 -199
219 -394 391 -742 555 -1125 266 -618 444 -1209 552 -1830 31 -176 33 -187 36
-220 2 -16 6 -43 9 -60 22 -126 42 -267 51 -370 27 -283 26 -784 0 -1010 -2
-16 -9 -75 -15 -130 -6 -55 -13 -111 -15 -125 -2 -14 -7 -47 -10 -75 -11 -81
-54 -301 -85 -425 -41 -168 -45 -207 -22 -219 43 -23 141 82 277 294 32 50 67
102 77 117 29 43 143 274 181 368 87 212 238 713 281 930 33 169 45 234 52
285 4 33 9 62 9 65 1 3 5 37 9 75 5 39 10 78 12 87 1 9 6 48 9 85 4 37 8 79
11 93 26 159 26 1078 -1 1435 -18 240 -29 341 -61 570 -3 22 -14 90 -24 150
-11 61 -22 126 -25 145 -18 109 -100 449 -160 665 -150 541 -369 1082 -643
1586 -193 357 -378 631 -632 939 -15 19 -75 92 -132 161 -218 266 -417 498
-478 556 -36 34 -45 39 -54 25z"/>
<path d="M11923 8885 c-51 -36 -20 -74 107 -133 152 -70 256 -111 337 -132
102 -26 260 -16 373 25 131 47 298 136 326 174 14 18 10 51 -8 63 -20 12 -43
10 -151 -18 -94 -24 -120 -26 -322 -28 -240 -1 -328 5 -452 34 -125 30 -184
34 -210 15z"/>
<path d="M8728 7277 c-20 -16 -40 -47 -138 -207 -71 -116 -279 -467 -330 -555
-302 -526 -421 -756 -544 -1046 -143 -339 -316 -829 -385 -1092 -28 -108 -78
-337 -86 -397 -2 -14 -6 -43 -9 -65 -3 -22 -8 -60 -11 -85 -3 -25 -7 -61 -10
-80 -5 -37 -14 -156 -21 -275 -6 -99 -6 -733 0 -835 6 -88 14 -181 21 -240 3
-19 7 -55 10 -80 3 -25 7 -56 10 -70 2 -14 7 -43 10 -64 3 -22 19 -107 36
-190 17 -83 33 -160 35 -171 2 -11 20 -81 39 -155 19 -74 37 -142 39 -150 11
-43 71 -222 88 -265 91 -225 151 -350 264 -546 225 -392 469 -709 545 -709
l29 0 -5 86 c-2 47 -7 111 -10 142 -34 404 -40 1651 -10 2167 2 33 6 123 10
200 3 77 8 165 10 195 3 30 7 93 10 140 3 47 7 110 10 140 2 30 7 89 10 130
15 187 24 289 40 435 4 39 8 88 10 110 3 31 41 334 60 475 6 49 18 125 21 145
3 11 7 38 9 60 5 34 22 135 40 240 3 17 22 111 41 210 19 99 37 191 40 205 13
71 72 319 119 505 52 203 93 351 245 874 38 134 73 261 76 282 6 33 -1 54 -50
151 -31 62 -67 131 -81 153 -14 22 -28 47 -32 56 -19 39 -109 168 -124 177
-12 8 -21 7 -31 -1z"/>
<path d="M13160 7282 c-21 -7 -30 -18 -76 -92 -133 -210 -217 -374 -217 -422
0 -42 9 -95 27 -150 7 -23 26 -88 41 -143 15 -55 34 -120 42 -144 8 -24 16
-51 18 -60 2 -9 31 -110 65 -226 106 -368 252 -961 285 -1165 3 -19 10 -57 15
-85 6 -27 12 -61 15 -75 3 -14 10 -54 15 -90 6 -36 13 -75 15 -88 18 -98 25
-143 30 -182 3 -25 8 -56 10 -70 3 -14 7 -41 9 -60 3 -19 16 -125 30 -235 14
-110 28 -225 31 -255 2 -30 6 -75 9 -100 10 -88 15 -136 21 -205 3 -38 8 -88
10 -110 2 -22 7 -76 10 -120 3 -44 8 -102 10 -130 2 -27 7 -97 10 -155 4 -58
8 -130 10 -160 4 -54 12 -206 20 -365 25 -514 25 -1609 0 -1997 -13 -198 -16
-239 -21 -315 l-6 -83 32 0 c25 0 43 12 92 62 33 35 72 79 87 98 14 19 34 44
44 55 23 24 175 252 238 355 256 417 386 730 498 1192 36 152 76 355 91 468 6
47 13 96 15 110 2 14 7 52 10 85 3 33 8 76 10 95 25 196 25 834 1 1085 -2 17
-6 64 -10 105 -4 41 -8 86 -10 100 -2 14 -7 52 -11 85 -4 33 -8 67 -10 75 -1
8 -6 35 -10 60 -4 25 -9 52 -10 60 -36 181 -81 356 -127 500 -59 186 -59 186
-162 470 -169 467 -381 905 -689 1425 -16 28 -39 66 -50 85 -11 19 -27 47 -36
62 -9 15 -53 90 -98 167 -101 172 -292 480 -301 485 -4 2 -14 1 -22 -2z"/>
<path d="M9573 6468 c-17 -22 -119 -287 -156 -408 -20 -63 -54 -187 -76 -275
-37 -148 -43 -178 -56 -244 -3 -14 -13 -68 -24 -120 -11 -53 -22 -109 -25
-126 -3 -16 -12 -71 -20 -122 -9 -50 -18 -111 -21 -135 -3 -24 -7 -52 -9 -64
-2 -12 -7 -43 -10 -70 -4 -27 -9 -65 -11 -84 -5 -39 -10 -75 -26 -195 -17
-141 -18 -149 -24 -205 -3 -30 -7 -75 -10 -100 -3 -25 -7 -81 -10 -125 -3 -44
-8 -114 -11 -155 -3 -41 -7 -102 -9 -135 -6 -82 -6 -557 0 -625 2 -30 7 -89
10 -130 3 -41 8 -93 10 -115 3 -22 8 -57 10 -77 12 -94 17 -129 31 -213 9 -49
22 -117 30 -150 8 -33 17 -71 20 -85 35 -177 129 -456 204 -608 127 -255 261
-430 495 -642 64 -58 207 -161 264 -190 46 -23 87 -21 97 5 3 8 -17 81 -44
162 -46 135 -81 252 -117 388 -8 28 -23 86 -35 130 -12 44 -23 87 -25 95 -2 8
-16 65 -30 125 -15 61 -28 117 -30 125 -2 8 -13 58 -25 110 -12 52 -23 102
-25 111 -2 9 -12 59 -24 110 -30 142 -33 156 -76 384 -19 99 -36 194 -39 210
-2 17 -12 73 -20 125 -9 52 -18 113 -21 135 -3 22 -7 54 -10 70 -16 101 -22
149 -35 270 -5 50 -12 99 -14 110 -2 11 -7 67 -11 125 -4 58 -8 125 -10 150
-3 40 -7 132 -20 385 -19 384 -26 1444 -12 1831 5 130 3 202 -4 223 -11 32
-30 40 -46 19z"/>
<path d="M12293 6458 c-6 -14 -9 -79 -7 -158 6 -196 5 -1354 0 -1565 -5 -195
-14 -412 -21 -515 -3 -36 -7 -110 -10 -165 -6 -111 -10 -167 -19 -270 -9 -95
-23 -224 -31 -285 -3 -19 -7 -52 -10 -74 -5 -41 -14 -105 -20 -146 -21 -136
-48 -299 -52 -315 -2 -11 -12 -67 -23 -125 -10 -58 -23 -125 -29 -150 -5 -25
-13 -61 -16 -80 -3 -19 -12 -64 -20 -100 -17 -76 -65 -296 -71 -325 -3 -11 -7
-31 -10 -43 -3 -13 -34 -142 -70 -285 -75 -303 -131 -496 -185 -647 -20 -59
-37 -113 -36 -121 10 -61 71 -46 207 49 36 25 67 48 70 51 3 4 23 20 45 36 72
54 259 248 331 345 149 200 243 384 319 620 68 214 133 493 160 690 3 25 8 56
10 70 2 14 7 54 10 90 4 36 8 81 11 100 21 181 21 709 -1 930 -2 19 -6 80 -10
135 -4 55 -9 108 -11 119 -2 10 -6 46 -9 80 -3 33 -7 77 -10 96 -2 19 -7 58
-10 85 -4 28 -12 100 -20 160 -8 61 -16 128 -19 150 -55 431 -190 1045 -286
1295 -12 30 -26 71 -32 90 -5 19 -16 46 -23 60 -7 14 -21 45 -31 70 -30 76
-52 90 -71 48z"/>
<path d="M10403 6278 c-22 -6 -32 -15 -36 -35 -6 -29 0 -556 7 -628 2 -22 7
-107 11 -190 8 -167 9 -183 19 -340 20 -297 27 -403 31 -451 2 -23 7 -81 10
-130 6 -89 8 -116 20 -249 4 -38 8 -90 10 -115 3 -25 7 -76 10 -115 3 -38 7
-86 10 -105 2 -19 7 -64 10 -100 3 -36 8 -81 10 -100 41 -337 49 -393 60 -440
1 -3 5 -25 9 -50 16 -94 88 -353 135 -487 88 -249 204 -521 230 -537 44 -28
323 711 367 974 2 14 9 48 15 75 5 28 12 66 15 85 2 19 9 62 14 95 8 52 19
140 35 280 2 22 9 90 15 150 13 137 19 198 25 255 4 42 7 83 20 250 3 36 7 94
10 130 6 71 11 141 20 265 10 143 14 198 20 315 4 63 8 140 10 170 3 30 7 118
11 195 3 77 8 165 10 195 8 145 16 581 10 603 -4 18 -15 28 -38 33 -45 10
-1066 12 -1105 2z"/>
</g>
</svg>
